#!OML:ASF H:\Terrain\Patient Classification 1\Terrain2\Thursday\justin.ASF
:FULLY-SPECIFIED
:DEGREES
1296
root 12.6297 17.6912 -10.8557 820.573 -91.2302 253.267
lowerback 3.04163 1.14554 -2.2859
upperback 2.41394 1.42986 2.26841
thorax 0.659834 0.653779 3.5796
lowerneck -10.6282 2.03995 -8.36722
upperneck 41.9598 2.6038 1.76877
head 16.8917 -0.749621 2.51728
rclavicle 2.56091e-015 7.95139e-015
rhumerus -33.5048 -16.3415 -74.2113
rradius 22.3855
rwrist -7.38384
rhand -21.9965 9.97327
rfingers 7.12502
rthumb 4.4121 -19.9608
lclavicle 2.56091e-015 7.95139e-015
lhumerus -39.7231 20.7082 76.7731
lradius 22.0485
lwrist -6.27423
lhand -15.8515 22.9293
lfingers 7.12502
lthumb 10.3435 52.655
rfemur -1.36367 -9.04073 14.0536
rtibia 81.3095
rfoot -23.588 12.2967
rtoes -6.55931
lfemur -3.03494 6.60679 -22.163
ltibia 20.0959
lfoot -1.3246 -13.5777
ltoes 24.8036
1297
root 12.5526 17.6739 -10.8366 832.136 -91.0389 241.573
lowerback 3.19323 1.15448 -1.77158
upperback 2.39495 1.45093 2.20826
thorax 0.567018 0.672095 3.22325
lowerneck -10.7888 1.99435 -8.44346
upperneck 42.1494 2.50814 1.92285
head 17.0411 -0.793419 2.5919
rclavicle -2.7892e-015 1.35174e-014
rhumerus -33.6356 -16.3696 -74.3093
rradius 22.2415
rwrist -8.19815
rhand -22.272 9.53456
rfingers 7.12502
rthumb 4.14612 -20.4048
lclavicle -2.7892e-015 1.35174e-014
lhumerus -39.5645 20.9417 76.4728
lradius 22.1251
lwrist -6.18125
lhand -15.4945 23.2542
lfingers 7.12502
lthumb 10.6878 52.9624
rfemur -1.9125 -8.95861 14.2884
rtibia 82.476
rfoot -23.6547 10.8891
rtoes -6.0516
lfemur -2.44438 6.57147 -21.9402
ltibia 19.8258
lfoot -1.40966 -13.7456
ltoes 25.4102
1298
root 12.487 17.665 -10.8231 838.048 -90.9978 235.659
lowerback 3.28398 1.07483 -1.54975
upperback 2.36891 1.34927 2.17769
thorax 0.501994 0.62491 3.06759
lowerneck -11.0606 2.04941 -8.51112
upperneck 42.4288 2.61682 1.961
head 17.2612 -0.776999 2.64855
rclavicle -1.85926e-014 1.98785e-014
rhumerus -33.7083 -17.46 -73.9244
rradius 22.0679
rwrist -7.27397
rhand -22.1265 9.02857
rfingers 7.12502
rthumb 4.28658 -20.908
lclavicle -1.85926e-014 1.98785e-014
lhumerus -39.4012 21.1681 76.4181
lradius 22.3073
lwrist -5.57009
lhand -15.7583 23.5413
lfingers 7.12502
lthumb 10.4333 53.2624
rfemur -2.70975 -8.85363 14.3679
rtibia 83.5987
rfoot -23.5574 9.5809
rtoes -4.3214
lfemur -2.17298 6.92481 -21.9367
ltibia 19.636
lfoot -1.69865 -13.9636
ltoes 24.1217
1299
root 12.4238 17.6677 -10.8119 832.802 -91.2425 240.953
lowerback 3.3153 1.06276 -1.70381
upperback 2.36418 1.33116 2.04184
thorax 0.48057 0.616125 3.01418
lowerneck -11.1913 2.06923 -8.38787
upperneck 42.5199 2.66599 1.86316
head 17.3495 -0.757313 2.59383
rclavicle 1.6451e-014 1.66979e-014
rhumerus -33.7289 -18.9824 -73.4117
rradius 21.7646
rwrist -5.98617
rhand -22.3746 8.75063
rfingers 7.12502
rthumb 4.04703 -21.1907
lclavicle 1.6451e-014 1.66979e-014
lhumerus -38.9982 20.9585 76.6415
lradius 22.3941
lwrist -4.6599
lhand -16.2852 23.6282
lfingers 7.12502
lthumb 9.92498 53.3742
rfemur -3.64132 -8.73848 14.0275
rtibia 84.6578
rfoot -23.5487 8.36204
rtoes -3.85099
lfemur -1.90308 6.79231 -22.3507
ltibia 19.4325
lfoot -2.26947 -13.7098
ltoes 21.8581
1300
root 12.3602 17.6822 -10.8013 827.694 -91.553 245.987
lowerback 3.41534 1.07996 -2.01683
upperback 2.41555 1.34506 1.94428
thorax 0.47211 0.619843 3.08828
lowerneck -11.1709 2.08201 -8.45935
upperneck 42.4959 2.69337 1.89626
head 17.326 -0.750641 2.62566
rclavicle 2.11744e-014 3.18055e-015
rhumerus -33.6092 -19.2252 -73.3899
rradius 21.5733
rwrist -6.17468
rhand -22.8439 8.74701
rfingers 7.12502
rthumb 3.59382 -21.2024
lclavicle 2.11744e-014 3.18055e-015
lhumerus -38.5575 20.7219 76.9624
lradius 22.4957
lwrist -3.99702
lhand -16.8108 23.9551
lfingers 7.12502
lthumb 9.41794 53.7246
rfemur -4.42412 -8.52661 13.6391
rtibia 85.5703
rfoot -23.3875 7.81442
rtoes -2.81246
lfemur -1.35438 6.32851 -22.7762
ltibia 19.0313
lfoot -2.38165 -13.2183
ltoes 21.825
1301
root 12.2996 17.7032 -10.7904 824.846 -91.762 248.661
lowerback 3.58593 1.02063 -2.35388
upperback 2.52025 1.25101 1.99509
thorax 0.483364 0.565735 3.33221
lowerneck -11.1497 2.17397 -8.54721
upperneck 42.4191 2.92058 1.7568
head 17.2636 -0.685427 2.61237
rclavicle -6.11535e-015 0
rhumerus -33.2848 -18.814 -73.5537
rradius 21.3603
rwrist -6.64684
rhand -22.7218 8.76544
rfingers 7.12502
rthumb 3.71179 -21.182
lclavicle -6.11535e-015 0
lhumerus -38.1752 20.5973 77.4994
lradius 22.7917
lwrist -2.84696
lhand -17.7962 24.3945
lfingers 7.12502
lthumb 8.467 54.2048
rfemur -5.00816 -8.30034 13.3698
rtibia 86.316
rfoot -23.5121 7.41999
rtoes -1.68519
lfemur -0.583011 5.29877 -23.0604
ltibia 18.3583
lfoot -1.91328 -12.2926
ltoes 26.2288
1302
root 12.2447 17.7195 -10.7826 825.161 -91.9411 248.26
lowerback 3.70623 0.988019 -2.56266
upperback 2.58729 1.19779 1.9807
thorax 0.485662 0.535046 3.4358
lowerneck -11.1187 2.19164 -8.52899
upperneck 42.3222 2.99251 1.6413
head 17.1998 -0.660893 2.56583
rclavicle -3.25044e-015 -1.11319e-014
rhumerus -33.0413 -19.0367 -73.5307
rradius 21.066
rwrist -6.233
rhand -22.183 8.71127
rfingers 7.12502
rthumb 4.2321 -21.2264
lclavicle -3.25044e-015 -1.11319e-014
lhumerus -37.6737 19.8088 78.2413
lradius 23.2066
lwrist -1.05246
lhand -18.1714 24.4407
lfingers 7.12502
lthumb 8.10489 54.2652
rfemur -5.73331 -8.29197 13.1302
rtibia 87.0078
rfoot -23.9437 6.82327
rtoes -1.8936
lfemur -0.000484003 4.43771 -23.3398
ltibia 17.8026
lfoot -1.84947 -11.6088
ltoes 27.9499
1303
root 12.1939 17.7222 -10.7821 826.737 -91.9157 246.735
lowerback 3.74952 1.04993 -2.46664
upperback 2.56762 1.28324 1.90363
thorax 0.438023 0.580962 3.29793
lowerneck -11.01 2.11283 -8.47066
upperneck 42.2307 2.82684 1.68634
head 17.1303 -0.704893 2.54601
rclavicle -2.0655e-015 4.77083e-015
rhumerus -33.0192 -19.33 -73.6705
rradius 20.9907
rwrist -6.20142
rhand -22.2961 8.60564
rfingers 7.12502
rthumb 4.12287 -21.3342
lclavicle -2.0655e-015 4.77083e-015
lhumerus -37.2841 19.1377 78.5794
lradius 23.6308
lwrist -0.364685
lhand -17.6415 24.2529
lfingers 7.12502
lthumb 8.61634 54.0571
rfemur -6.75469 -8.17087 13.2766
rtibia 87.75
rfoot -24.0769 6.69608
rtoes -1.45816
lfemur 0.312401 4.89267 -23.4261
ltibia 17.3359
lfoot -2.59792 -11.8559
ltoes 19.5885
1304
root 12.139 17.7502 -10.7846 829.743 -91.2751 243.752
lowerback 3.8373 1.15766 -1.78049
upperback 2.55987 1.44353 1.97799
thorax 0.382599 0.668541 2.9802
lowerneck -11.081 2.04578 -8.38619
upperneck 42.3047 2.68533 1.74051
head 17.2005 -0.746129 2.53586
rclavicle 2.62147e-015 6.36111e-015
rhumerus -32.8892 -18.4636 -74.4859
rradius 21.1273
rwrist -8.23594
rhand -23.2722 8.86131
rfingers 7.12502
rthumb 3.18019 -21.0947
lclavicle 2.62147e-015 6.36111e-015
lhumerus -37.0042 18.9112 78.6579
lradius 24.1368
lwrist -0.567215
lhand -17.5221 24.0875
lfingers 7.12502
lthumb 8.73155 53.8869
rfemur -7.66379 -7.70782 14.3059
rtibia 88.223
rfoot -24.0011 6.5667
rtoes -1.46475
lfemur 0.556673 4.53171 -22.7283
ltibia 17.1898
lfoot -2.57627 -11.3049
ltoes 20.5303
1305
root 12.0941 17.7605 -10.784 834.836 -90.6365 238.667
lowerback 3.92883 1.1837 -1.08846
upperback 2.59754 1.49418 2.0686
thorax 0.381262 0.698989 2.68073
lowerneck -11.175 2.05307 -8.20432
upperneck 42.2803 2.71833 1.60218
head 17.2158 -0.719737 2.44729
rclavicle -7.64079e-016 2.3059e-014
rhumerus -32.6227 -16.9429 -75.5398
rradius 21.3718
rwrist -10.4447
rhand -23.9957 9.31073
rfingers 7.12502
rthumb 2.48148 -20.6546
lclavicle -7.64079e-016 2.3059e-014
lhumerus -36.7111 18.7003 78.8048
lradius 24.7323
lwrist -0.67208
lhand -17.6152 23.9857
lfingers 7.12502
lthumb 8.64172 53.7888
rfemur -8.59939 -7.33643 15.2822
rtibia 88.6811
rfoot -24.0297 6.05021
rtoes -3.49775
lfemur 0.66893 4.97176 -22.1001
ltibia 17.2134
lfoot -2.98581 -11.2548
ltoes 16.2474
1306
root 12.0452 17.7901 -10.7802 831.986 -90.7197 241.548
lowerback 3.98782 1.11027 -1.23258
upperback 2.64662 1.38983 2.06809
thorax 0.401279 0.643857 2.76478
lowerneck -11.2329 2.09162 -8.28309
upperneck 42.1352 2.84733 1.54177
head 17.14 -0.676008 2.45411
rclavicle 7.77124e-015 5.56597e-015
rhumerus -32.3592 -15.8993 -76.1355
rradius 21.6535
rwrist -11.2244
rhand -23.809 9.43167
rfingers 7.12502
rthumb 2.66183 -20.5315
lclavicle 7.77124e-015 5.56597e-015
lhumerus -36.4511 18.4409 79.0969
lradius 25.4181
lwrist -0.391987
lhand -17.4645 23.9148
lfingers 7.12502
lthumb 8.78716 53.7119
rfemur -9.43842 -7.25215 15.3243
rtibia 88.9802
rfoot -24.1397 5.51095
rtoes -5.74926
lfemur 0.719781 4.78348 -22.1431
ltibia 17.525
lfoot -2.34261 -10.8409
ltoes 22.8252
